<svg id="レイヤー_1" data-name="レイヤー 1" xmlns="http://www.w3.org/2000/svg" viewBox="0 0 60 60"><defs><style>.cls-1{fill:#00aced;}.cls-2{fill:#fff;}</style></defs><title>プロフィールページ</title><circle class="cls-1" cx="30" cy="30" r="30"/><path class="cls-2" d="M48.46,18.55a15.15,15.15,0,0,1-4.35,1.19,7.6,7.6,0,0,0,3.33-4.19,15.24,15.24,0,0,1-4.81,1.84A7.59,7.59,0,0,0,29.72,24.3a21.54,21.54,0,0,1-15.61-7.91A7.59,7.59,0,0,0,16.46,26.5,7.49,7.49,0,0,1,13,25.55v.1a7.57,7.57,0,0,0,6.07,7.42,7.65,7.65,0,0,1-2,.27,7.46,7.46,0,0,1-1.43-.14,7.58,7.58,0,0,0,7.08,5.26,15.23,15.23,0,0,1-9.41,3.24,15.44,15.44,0,0,1-1.81-.1A21.44,21.44,0,0,0,23.15,45C37.08,45,44.7,33.46,44.7,23.45c0-.33,0-.65,0-1A15.48,15.48,0,0,0,48.46,18.55Z"/></svg>